<?xml version="1.0" encoding="UTF-8"?>
<svg xmlns="http://www.w3.org/2000/svg" xmlns:xlink="http://www.w3.org/1999/xlink" width="30pt" height="30pt" viewBox="0 0 30 30" version="1.1">
<g id="surface1">
<path style=" stroke:none;fill-rule:nonzero;fill:rgb(0%,0%,0%);fill-opacity:1;" d="M 0 13.042969 C -0.0117188 14.175781 0.6875 15.195312 1.75 15.59375 L 1.75 10.734375 C 1.75 10.664062 1.785156 10.558594 1.785156 10.488281 C 0.714844 10.882812 0.00390625 11.902344 0 13.042969 Z M 0 13.042969 "/>
<path style=" stroke:none;fill-rule:nonzero;fill:rgb(0%,0%,0%);fill-opacity:1;" d="M 9.546875 19.054688 L 4.964844 19.054688 L 6.679688 25.28125 C 6.933594 26.230469 7.792969 26.890625 8.777344 26.886719 C 9.476562 26.894531 10.136719 26.570312 10.558594 26.015625 C 10.984375 25.484375 11.117188 24.773438 10.910156 24.125 Z M 9.546875 19.054688 "/>
<path style=" stroke:none;fill-rule:nonzero;fill:rgb(0%,0%,0%);fill-opacity:1;" d="M 1.785156 10.453125 L 1.816406 10.453125 L 1.816406 10.417969 C 1.816406 10.453125 1.816406 10.453125 1.785156 10.453125 Z M 1.785156 10.453125 "/>
<path style=" stroke:none;fill-rule:nonzero;fill:rgb(0%,0%,0%);fill-opacity:1;" d="M 26.851562 9.964844 L 26.574219 9.964844 L 26.574219 16.257812 L 26.851562 16.257812 C 28.589844 16.257812 30 14.851562 30 13.113281 C 30 11.375 28.589844 9.964844 26.851562 9.964844 Z M 26.851562 9.964844 "/>
<path style=" stroke:none;fill-rule:nonzero;fill:rgb(0%,0%,0%);fill-opacity:1;" d="M 2.796875 10.734375 L 2.796875 15.699219 C 2.835938 16.984375 3.890625 18.007812 5.175781 18.007812 L 11.539062 18.007812 L 11.539062 8.566406 L 5.175781 8.566406 C 3.917969 8.566406 2.796875 9.476562 2.796875 10.734375 Z M 2.796875 10.734375 "/>
<path style=" stroke:none;fill-rule:nonzero;fill:rgb(0%,0%,0%);fill-opacity:1;" d="M 12.585938 18.148438 L 25.523438 23.320312 L 25.523438 3.113281 L 12.585938 8.285156 Z M 12.585938 18.148438 "/>
</g>
</svg>
