<?xml version="1.0" encoding="UTF-8"?>
<svg xmlns="http://www.w3.org/2000/svg" xmlns:xlink="http://www.w3.org/1999/xlink" width="30pt" height="30pt" viewBox="0 0 30 30" version="1.1">
<g id="surface1">
<path style=" stroke:none;fill-rule:nonzero;fill:rgb(0%,0%,0%);fill-opacity:1;" d="M 29.917969 25.769531 C 29.914062 25.765625 29.914062 25.761719 29.914062 25.757812 L 28.722656 22.136719 L 28.722656 13.269531 C 28.722656 11.816406 27.539062 10.632812 26.085938 10.632812 L 18.386719 10.632812 L 18.386719 14.949219 C 18.386719 17.371094 16.417969 19.34375 13.992188 19.34375 L 13.371094 19.34375 L 13.371094 23.582031 C 13.371094 25.039062 14.554688 26.21875 16.007812 26.21875 L 24.953125 26.21875 L 27.253906 27.753906 C 27.558594 27.957031 27.898438 28.058594 28.242188 28.058594 C 28.605469 28.058594 28.972656 27.941406 29.285156 27.707031 C 29.898438 27.253906 30.144531 26.496094 29.917969 25.769531 Z M 23.933594 22.648438 C 23.480469 22.820312 22.972656 22.589844 22.800781 22.136719 L 22.417969 21.121094 L 19.742188 21.121094 L 19.355469 22.136719 C 19.222656 22.488281 18.890625 22.703125 18.535156 22.703125 C 18.429688 22.703125 18.324219 22.6875 18.222656 22.648438 C 17.769531 22.472656 17.539062 21.964844 17.714844 21.511719 L 20.132812 15.15625 C 20.136719 15.152344 20.140625 15.144531 20.140625 15.136719 C 20.300781 14.75 20.671875 14.5 21.089844 14.5 C 21.507812 14.5 21.878906 14.75 22.039062 15.136719 C 22.042969 15.144531 22.042969 15.152344 22.046875 15.160156 L 24.445312 21.515625 C 24.617188 21.96875 24.386719 22.476562 23.933594 22.648438 Z M 23.933594 22.648438 "/>
<path style=" stroke:none;fill-rule:nonzero;fill:rgb(0%,0%,0%);fill-opacity:1;" d="M 20.414062 19.363281 L 21.753906 19.363281 L 21.085938 17.59375 Z M 20.414062 19.363281 "/>
<path style=" stroke:none;fill-rule:nonzero;fill:rgb(0%,0%,0%);fill-opacity:1;" d="M 13.992188 1.941406 L 3.914062 1.941406 C 2.460938 1.941406 1.277344 3.125 1.277344 4.578125 L 1.277344 13.503906 L 0.0859375 17.125 C 0.0859375 17.128906 0.0859375 17.132812 0.0820312 17.136719 C -0.144531 17.859375 0.101562 18.621094 0.714844 19.074219 C 1.027344 19.308594 1.394531 19.425781 1.757812 19.425781 C 2.101562 19.425781 2.441406 19.324219 2.746094 19.117188 L 5.046875 17.585938 L 13.992188 17.585938 C 15.445312 17.585938 16.628906 16.402344 16.628906 14.949219 L 16.628906 4.578125 C 16.628906 3.125 15.445312 1.941406 13.992188 1.941406 Z M 12.621094 13.667969 C 12.449219 13.839844 12.226562 13.925781 12 13.925781 C 11.777344 13.925781 11.550781 13.839844 11.378906 13.667969 L 10.996094 13.28125 C 10.351562 13.703125 9.582031 13.949219 8.753906 13.949219 C 6.496094 13.949219 4.65625 12.113281 4.65625 9.851562 C 4.65625 7.589844 6.496094 5.75 8.753906 5.75 C 11.015625 5.75 12.855469 7.589844 12.855469 9.851562 C 12.855469 10.652344 12.625 11.398438 12.226562 12.027344 L 12.621094 12.425781 C 12.964844 12.769531 12.964844 13.324219 12.621094 13.667969 Z M 12.621094 13.667969 "/>
<path style=" stroke:none;fill-rule:nonzero;fill:rgb(0%,0%,0%);fill-opacity:1;" d="M 8.753906 7.507812 C 7.464844 7.507812 6.414062 8.558594 6.414062 9.851562 C 6.414062 11.144531 7.464844 12.191406 8.753906 12.191406 C 9.09375 12.191406 9.414062 12.121094 9.703125 11.992188 L 9.320312 11.605469 C 8.976562 11.261719 8.976562 10.707031 9.320312 10.363281 C 9.660156 10.019531 10.21875 10.019531 10.5625 10.363281 L 10.925781 10.726562 C 11.035156 10.457031 11.097656 10.160156 11.097656 9.851562 C 11.097656 8.558594 10.046875 7.507812 8.753906 7.507812 Z M 8.753906 7.507812 "/>
</g>
</svg>
