<?xml version="1.0" encoding="UTF-8"?>
<svg xmlns="http://www.w3.org/2000/svg" xmlns:xlink="http://www.w3.org/1999/xlink" width="45pt" height="45pt" viewBox="0 0 45 45" version="1.1">
<g id="surface1">
<path style=" stroke:none;fill-rule:nonzero;fill:rgb(0%,0%,0%);fill-opacity:1;" d="M 15.421875 8.953125 C 14.046875 9.472656 13.066406 10.789062 13.066406 12.339844 C 13.066406 12.9375 13.222656 13.492188 13.480469 13.992188 C 12.390625 14.410156 11.613281 15.457031 11.613281 16.695312 C 11.613281 17.929688 12.390625 18.980469 13.480469 19.398438 C 13.222656 19.894531 13.066406 20.453125 13.066406 21.046875 C 13.066406 22.601562 14.046875 23.917969 15.421875 24.433594 C 15.3125 24.738281 15.242188 25.0625 15.242188 25.402344 C 15.242188 27.003906 16.542969 28.304688 18.144531 28.304688 C 18.507812 28.304688 18.851562 28.230469 19.167969 28.113281 C 19.640625 29.082031 20.625 29.757812 21.773438 29.757812 C 23.375 29.757812 24.675781 28.457031 24.675781 26.855469 L 24.675781 6.53125 C 24.675781 4.933594 23.375 3.628906 21.773438 3.628906 C 20.625 3.628906 19.640625 4.304688 19.167969 5.277344 C 18.851562 5.15625 18.507812 5.082031 18.144531 5.082031 C 16.542969 5.082031 15.242188 6.382812 15.242188 7.984375 C 15.242188 8.324219 15.3125 8.648438 15.421875 8.953125 Z M 18.144531 6.53125 C 18.945312 6.53125 19.597656 7.183594 19.597656 7.984375 L 21.046875 7.984375 C 21.046875 7.285156 20.792969 6.652344 20.378906 6.152344 C 20.546875 5.539062 21.105469 5.082031 21.773438 5.082031 C 22.574219 5.082031 23.226562 5.730469 23.226562 6.53125 L 23.226562 26.855469 C 23.226562 27.65625 22.574219 28.304688 21.773438 28.304688 C 21.105469 28.304688 20.546875 27.851562 20.378906 27.234375 C 20.792969 26.734375 21.046875 26.101562 21.046875 25.402344 L 19.597656 25.402344 C 19.597656 26.203125 18.945312 26.855469 18.144531 26.855469 C 17.34375 26.855469 16.695312 26.203125 16.695312 25.402344 C 16.695312 24.601562 17.34375 23.953125 18.144531 23.953125 L 18.144531 22.5 C 17.4375 22.5 16.796875 22.765625 16.296875 23.1875 C 15.285156 22.996094 14.515625 22.113281 14.515625 21.046875 C 14.515625 19.847656 15.492188 18.871094 16.695312 18.871094 C 17.894531 18.871094 18.871094 19.847656 18.871094 21.046875 L 20.324219 21.046875 C 20.324219 19.046875 18.695312 17.417969 16.695312 17.417969 C 15.875 17.417969 15.125 17.703125 14.515625 18.164062 L 14.515625 18.144531 C 13.714844 18.144531 13.066406 17.496094 13.066406 16.695312 C 13.066406 15.894531 13.714844 15.242188 14.515625 15.242188 L 14.515625 15.222656 C 15.125 15.683594 15.875 15.96875 16.695312 15.96875 C 18.695312 15.96875 20.324219 14.339844 20.324219 12.339844 L 18.871094 12.339844 C 18.871094 13.539062 17.894531 14.515625 16.695312 14.515625 C 15.492188 14.515625 14.515625 13.539062 14.515625 12.339844 C 14.515625 11.273438 15.285156 10.390625 16.296875 10.203125 C 16.796875 10.625 17.4375 10.886719 18.144531 10.886719 L 18.144531 9.4375 C 17.34375 9.4375 16.695312 8.785156 16.695312 7.984375 C 16.695312 7.183594 17.34375 6.53125 18.144531 6.53125 Z M 18.144531 6.53125 "/>
<path style=" stroke:none;fill-rule:nonzero;fill:rgb(0%,0%,0%);fill-opacity:1;" d="M 32.660156 5.082031 C 32.300781 5.082031 31.957031 5.15625 31.636719 5.277344 C 31.167969 4.304688 30.179688 3.628906 29.03125 3.628906 C 27.429688 3.628906 26.128906 4.933594 26.128906 6.53125 L 26.128906 26.855469 C 26.128906 28.457031 27.429688 29.757812 29.03125 29.757812 C 30.179688 29.757812 31.167969 29.082031 31.636719 28.113281 C 31.957031 28.230469 32.300781 28.304688 32.660156 28.304688 C 34.261719 28.304688 35.566406 27.003906 35.566406 25.402344 C 35.566406 25.0625 35.496094 24.738281 35.386719 24.433594 C 36.757812 23.917969 37.742188 22.601562 37.742188 21.046875 C 37.742188 20.453125 37.582031 19.894531 37.328125 19.398438 C 38.414062 18.980469 39.195312 17.929688 39.195312 16.695312 C 39.195312 15.457031 38.414062 14.410156 37.328125 13.992188 C 37.582031 13.492188 37.742188 12.9375 37.742188 12.339844 C 37.742188 10.789062 36.757812 9.472656 35.386719 8.953125 C 35.496094 8.648438 35.566406 8.324219 35.566406 7.984375 C 35.566406 6.382812 34.261719 5.082031 32.660156 5.082031 Z M 36.289062 12.339844 C 36.289062 13.539062 35.3125 14.515625 34.113281 14.515625 C 32.914062 14.515625 31.9375 13.539062 31.9375 12.339844 L 30.484375 12.339844 C 30.484375 14.339844 32.113281 15.96875 34.113281 15.96875 C 34.933594 15.96875 35.683594 15.683594 36.289062 15.222656 L 36.289062 15.242188 C 37.089844 15.242188 37.742188 15.894531 37.742188 16.695312 C 37.742188 17.496094 37.089844 18.144531 36.289062 18.144531 L 36.289062 18.164062 C 35.683594 17.703125 34.933594 17.417969 34.113281 17.417969 C 32.113281 17.417969 30.484375 19.046875 30.484375 21.046875 L 31.9375 21.046875 C 31.9375 19.847656 32.914062 18.871094 34.113281 18.871094 C 35.3125 18.871094 36.289062 19.847656 36.289062 21.046875 C 36.289062 22.113281 35.523438 22.996094 34.511719 23.1875 C 34.007812 22.765625 33.367188 22.5 32.660156 22.5 L 32.660156 23.953125 C 33.460938 23.953125 34.113281 24.601562 34.113281 25.402344 C 34.113281 26.203125 33.460938 26.855469 32.660156 26.855469 C 31.859375 26.855469 31.210938 26.203125 31.210938 25.402344 L 29.757812 25.402344 C 29.757812 26.101562 30.015625 26.734375 30.425781 27.234375 C 30.257812 27.851562 29.699219 28.304688 29.03125 28.304688 C 28.230469 28.304688 27.582031 27.65625 27.582031 26.855469 L 27.582031 6.53125 C 27.582031 5.730469 28.230469 5.082031 29.03125 5.082031 C 29.699219 5.082031 30.257812 5.539062 30.425781 6.152344 C 30.015625 6.652344 29.757812 7.285156 29.757812 7.984375 L 31.210938 7.984375 C 31.210938 7.183594 31.859375 6.53125 32.660156 6.53125 C 33.460938 6.53125 34.113281 7.183594 34.113281 7.984375 C 34.113281 8.785156 33.460938 9.4375 32.660156 9.4375 L 32.660156 10.886719 C 33.367188 10.886719 34.007812 10.625 34.511719 10.203125 C 35.523438 10.390625 36.289062 11.273438 36.289062 12.339844 Z M 36.289062 12.339844 "/>
<path style=" stroke:none;fill-rule:nonzero;fill:rgb(0%,0%,0%);fill-opacity:1;" d="M 36.832031 4.527344 C 33.441406 1.339844 29 -0.257812 24.335938 0.0351562 L 24.425781 1.484375 C 28.6875 1.21875 32.742188 2.675781 35.839844 5.585938 C 38.9375 8.496094 40.644531 12.441406 40.644531 16.695312 C 40.644531 21.816406 38.089844 26.566406 33.816406 29.402344 C 32.339844 30.378906 31.222656 31.773438 30.535156 33.386719 L 20.242188 33.386719 C 19.542969 31.761719 18.421875 30.359375 16.945312 29.371094 C 12.539062 26.425781 10.003906 21.503906 10.171875 16.207031 L 8.71875 16.164062 C 8.539062 21.964844 11.3125 27.351562 16.140625 30.578125 C 17.207031 31.289062 18.058594 32.261719 18.648438 33.386719 L 16.695312 33.386719 L 16.695312 34.839844 L 19.230469 34.839844 C 19.371094 35.308594 19.484375 35.789062 19.539062 36.289062 L 18.144531 36.289062 L 18.144531 37.742188 L 19.597656 37.742188 L 19.597656 39.917969 C 19.597656 40.320312 19.921875 40.644531 20.324219 40.644531 L 21.046875 40.644531 C 21.046875 43.046875 23 45 25.402344 45 C 27.804688 45 29.757812 43.046875 29.757812 40.644531 L 30.484375 40.644531 C 30.886719 40.644531 31.210938 40.320312 31.210938 39.917969 L 31.210938 37.742188 L 32.660156 37.742188 L 32.660156 36.289062 L 31.261719 36.289062 C 31.3125 35.792969 31.414062 35.308594 31.550781 34.839844 L 34.113281 34.839844 L 34.113281 33.386719 L 32.125 33.386719 C 32.710938 32.273438 33.554688 31.3125 34.617188 30.613281 C 39.300781 27.507812 42.097656 22.304688 42.097656 16.695312 C 42.097656 12.105469 40.175781 7.671875 36.832031 4.527344 Z M 25.402344 43.546875 C 23.800781 43.546875 22.5 42.246094 22.5 40.644531 L 28.308594 40.644531 C 28.308594 42.246094 27.003906 43.546875 25.402344 43.546875 Z M 29.757812 39.195312 L 21.046875 39.195312 L 21.046875 37.742188 L 29.757812 37.742188 Z M 29.808594 36.289062 L 20.992188 36.289062 C 20.941406 35.796875 20.863281 35.3125 20.746094 34.839844 L 30.035156 34.839844 C 29.921875 35.308594 29.851562 35.796875 29.808594 36.289062 Z M 29.808594 36.289062 "/>
<path style=" stroke:none;fill-rule:nonzero;fill:rgb(0%,0%,0%);fill-opacity:1;" d="M 7.984375 5.082031 C 9.585938 5.082031 10.886719 6.382812 10.886719 7.984375 C 10.886719 8.386719 11.214844 8.710938 11.613281 8.710938 C 12.015625 8.710938 12.339844 8.386719 12.339844 7.984375 C 12.339844 6.382812 13.640625 5.082031 15.242188 5.082031 C 15.644531 5.082031 15.96875 4.757812 15.96875 4.355469 C 15.96875 3.953125 15.644531 3.628906 15.242188 3.628906 C 13.640625 3.628906 12.339844 2.328125 12.339844 0.726562 C 12.339844 0.324219 12.015625 0 11.613281 0 C 11.214844 0 10.886719 0.324219 10.886719 0.726562 C 10.886719 2.328125 9.585938 3.628906 7.984375 3.628906 C 7.585938 3.628906 7.257812 3.953125 7.257812 4.355469 C 7.257812 4.757812 7.585938 5.082031 7.984375 5.082031 Z M 11.613281 3.132812 C 11.9375 3.617188 12.351562 4.035156 12.835938 4.355469 C 12.351562 4.679688 11.9375 5.09375 11.613281 5.578125 C 11.292969 5.09375 10.875 4.679688 10.390625 4.355469 C 10.875 4.035156 11.292969 3.617188 11.613281 3.132812 Z M 11.613281 3.132812 "/>
<path style=" stroke:none;fill-rule:nonzero;fill:rgb(0%,0%,0%);fill-opacity:1;" d="M 10.886719 12.339844 C 11.289062 12.339844 11.613281 12.015625 11.613281 11.613281 C 11.613281 11.210938 11.289062 10.886719 10.886719 10.886719 C 9.285156 10.886719 7.984375 9.585938 7.984375 7.984375 C 7.984375 7.582031 7.660156 7.257812 7.257812 7.257812 C 6.859375 7.257812 6.53125 7.582031 6.53125 7.984375 C 6.53125 9.585938 5.230469 10.886719 3.628906 10.886719 C 3.230469 10.886719 2.902344 11.210938 2.902344 11.613281 C 2.902344 12.015625 3.230469 12.339844 3.628906 12.339844 C 5.230469 12.339844 6.53125 13.640625 6.53125 15.242188 C 6.53125 15.644531 6.859375 15.96875 7.257812 15.96875 C 7.660156 15.96875 7.984375 15.644531 7.984375 15.242188 C 7.984375 13.640625 9.285156 12.339844 10.886719 12.339844 Z M 7.257812 12.835938 C 6.9375 12.351562 6.519531 11.9375 6.035156 11.613281 C 6.519531 11.292969 6.9375 10.875 7.257812 10.390625 C 7.582031 10.875 8 11.289062 8.484375 11.613281 C 8 11.9375 7.582031 12.351562 7.257812 12.835938 Z M 7.257812 12.835938 "/>
</g>
</svg>
