<?xml version="1.0" encoding="UTF-8"?>
<svg xmlns="http://www.w3.org/2000/svg" xmlns:xlink="http://www.w3.org/1999/xlink" width="45pt" height="45pt" viewBox="0 0 45 45" version="1.1">
<g id="surface1">
<path style=" stroke:none;fill-rule:nonzero;fill:rgb(0%,0%,0%);fill-opacity:1;" d="M 30.007812 3.410156 L 26.714844 3.410156 C 26.304688 3.398438 25.953125 3.113281 25.851562 2.71875 C 25.539062 1.097656 24.09375 -0.0546875 22.441406 0.00390625 C 20.78125 -0.0273438 19.34375 1.144531 19.035156 2.773438 C 18.925781 3.160156 18.570312 3.425781 18.167969 3.410156 L 14.992188 3.410156 L 14.992188 9.1875 L 30.007812 9.1875 Z M 30.007812 3.410156 "/>
<path style=" stroke:none;fill-rule:nonzero;fill:rgb(0%,0%,0%);fill-opacity:1;" d="M 39.25 42.34375 L 39.25 9.246094 C 39.253906 7.9375 38.199219 6.875 36.890625 6.871094 C 36.828125 6.871094 36.769531 6.871094 36.710938 6.875 L 31.742188 6.875 L 31.742188 9.820312 C 31.742188 10.285156 31.453125 10.917969 30.992188 10.917969 L 13.949219 10.917969 C 13.488281 10.917969 13.257812 10.285156 13.257812 9.820312 L 13.257812 6.875 L 8.289062 6.875 C 6.984375 6.78125 5.851562 7.761719 5.753906 9.066406 C 5.75 9.125 5.75 9.183594 5.75 9.246094 L 5.75 42.34375 C 5.714844 43.777344 6.855469 44.96875 8.289062 45 L 36.710938 45 C 38.144531 44.96875 39.28125 43.78125 39.25 42.34375 Z M 17.820312 34.71875 L 13.316406 38.933594 C 13.171875 39.105469 12.960938 39.210938 12.738281 39.222656 C 12.496094 39.214844 12.269531 39.109375 12.101562 38.933594 L 9.734375 36.507812 C 9.417969 36.15625 9.445312 35.617188 9.792969 35.296875 C 10.128906 34.964844 10.667969 34.964844 11.003906 35.296875 L 12.738281 37.144531 L 16.664062 33.445312 C 17.058594 33.175781 17.597656 33.273438 17.871094 33.667969 C 18.09375 33.988281 18.074219 34.417969 17.820312 34.71875 Z M 17.820312 25.476562 L 13.316406 29.691406 C 13.171875 29.863281 12.960938 29.96875 12.738281 29.980469 C 12.496094 29.972656 12.269531 29.867188 12.101562 29.691406 L 9.734375 27.265625 C 9.417969 26.914062 9.445312 26.375 9.792969 26.054688 C 10.128906 25.722656 10.667969 25.722656 11.003906 26.054688 L 12.738281 27.902344 L 16.664062 24.203125 C 17.058594 23.933594 17.597656 24.03125 17.871094 24.425781 C 18.09375 24.746094 18.074219 25.175781 17.820312 25.476562 Z M 17.820312 16.234375 L 13.316406 20.449219 C 13.171875 20.621094 12.960938 20.726562 12.738281 20.738281 C 12.496094 20.730469 12.269531 20.625 12.101562 20.449219 L 9.734375 18.023438 C 9.417969 17.671875 9.445312 17.132812 9.792969 16.8125 C 10.128906 16.480469 10.667969 16.480469 11.003906 16.8125 L 12.738281 18.660156 L 16.664062 14.960938 C 17.058594 14.691406 17.597656 14.789062 17.871094 15.183594 C 18.09375 15.503906 18.074219 15.933594 17.820312 16.234375 Z M 34.628906 38.066406 L 21.34375 38.066406 C 20.867188 38.066406 20.476562 37.679688 20.476562 37.203125 C 20.476562 36.722656 20.867188 36.335938 21.34375 36.335938 L 34.628906 36.335938 C 35.109375 36.335938 35.496094 36.722656 35.496094 37.203125 C 35.496094 37.679688 35.109375 38.066406 34.628906 38.066406 Z M 34.628906 28.824219 L 21.34375 28.824219 C 20.867188 28.824219 20.476562 28.4375 20.476562 27.960938 C 20.476562 27.480469 20.867188 27.09375 21.34375 27.09375 L 34.628906 27.09375 C 35.109375 27.09375 35.496094 27.480469 35.496094 27.960938 C 35.496094 28.4375 35.109375 28.824219 34.628906 28.824219 Z M 34.628906 19.582031 L 21.34375 19.582031 C 20.867188 19.582031 20.476562 19.195312 20.476562 18.71875 C 20.476562 18.238281 20.867188 17.851562 21.34375 17.851562 L 34.628906 17.851562 C 35.109375 17.851562 35.496094 18.238281 35.496094 18.71875 C 35.496094 19.195312 35.109375 19.582031 34.628906 19.582031 Z M 34.628906 19.582031 "/>
</g>
</svg>
