<?xml version="1.0" encoding="UTF-8"?>
<svg xmlns="http://www.w3.org/2000/svg" xmlns:xlink="http://www.w3.org/1999/xlink" width="30pt" height="30pt" viewBox="0 0 30 30" version="1.1">
<g id="surface1">
<path style=" stroke:none;fill-rule:nonzero;fill:rgb(0%,0%,0%);fill-opacity:1;" d="M 17.765625 23.589844 C 15.898438 23.589844 14.089844 23.265625 12.382812 22.621094 C 10.722656 21.992188 9.226562 21.09375 7.941406 19.945312 C 6.644531 18.789062 5.621094 17.433594 4.902344 15.917969 C 4.621094 15.320312 4.390625 14.710938 4.210938 14.089844 C 1.679688 15.542969 0 18.082031 0 20.972656 C 0 23.402344 1.1875 25.582031 3.074219 27.082031 C 2.605469 27.851562 1.964844 28.445312 1.421875 28.855469 C 1.007812 29.167969 1.171875 29.820312 1.683594 29.902344 C 2.070312 29.96875 2.460938 30 2.847656 30 C 4.226562 30 5.546875 29.589844 6.566406 28.816406 C 7.390625 29.035156 8.265625 29.152344 9.171875 29.152344 C 13.207031 29.152344 16.636719 26.824219 17.859375 23.589844 C 17.828125 23.589844 17.796875 23.589844 17.765625 23.589844 Z M 17.765625 23.589844 "/>
<path style=" stroke:none;fill-rule:nonzero;fill:rgb(0%,0%,0%);fill-opacity:1;" d="M 28.449219 21.6875 C 27.664062 21.140625 26.625 20.261719 25.898438 19.070312 C 28.414062 17.070312 30 14.160156 30 10.917969 C 30 4.886719 24.523438 0 17.765625 0 C 11.007812 0 5.527344 4.886719 5.527344 10.917969 C 5.527344 16.945312 11.007812 21.832031 17.765625 21.832031 C 18.972656 21.832031 20.136719 21.675781 21.242188 21.386719 C 22.601562 22.417969 24.363281 22.964844 26.203125 22.964844 C 26.875 22.964844 27.558594 22.890625 28.234375 22.742188 C 28.734375 22.632812 28.871094 21.980469 28.449219 21.6875 Z M 19.347656 7.007812 C 19.347656 6.523438 19.738281 6.128906 20.226562 6.128906 C 20.710938 6.128906 21.105469 6.523438 21.105469 7.007812 L 21.105469 9.21875 C 21.105469 9.703125 20.710938 10.097656 20.226562 10.097656 C 19.738281 10.097656 19.347656 9.703125 19.347656 9.21875 Z M 14.042969 6.980469 C 14.042969 6.496094 14.4375 6.101562 14.921875 6.101562 C 15.410156 6.101562 15.800781 6.496094 15.800781 6.980469 L 15.800781 9.191406 C 15.800781 9.675781 15.410156 10.070312 14.921875 10.070312 C 14.4375 10.070312 14.042969 9.675781 14.042969 9.191406 Z M 23.140625 15.316406 C 21.691406 16.507812 19.773438 17.164062 17.738281 17.164062 C 15.707031 17.164062 13.789062 16.507812 12.339844 15.316406 C 10.839844 14.082031 10.011719 12.425781 10.011719 10.652344 C 10.011719 10.167969 10.40625 9.773438 10.890625 9.773438 C 11.378906 9.773438 11.769531 10.167969 11.769531 10.652344 C 11.769531 13.273438 14.449219 15.40625 17.738281 15.40625 C 21.03125 15.40625 23.710938 13.273438 23.710938 10.652344 C 23.710938 10.167969 24.101562 9.773438 24.589844 9.773438 C 25.074219 9.773438 25.46875 10.167969 25.46875 10.652344 C 25.46875 12.425781 24.640625 14.082031 23.140625 15.316406 Z M 23.140625 15.316406 "/>
</g>
</svg>
