<?xml version="1.0" encoding="UTF-8"?>
<svg xmlns="http://www.w3.org/2000/svg" xmlns:xlink="http://www.w3.org/1999/xlink" width="30pt" height="30pt" viewBox="0 0 30 30" version="1.1">
<g id="surface1">
<path style=" stroke:none;fill-rule:nonzero;fill:rgb(0%,0%,0%);fill-opacity:1;" d="M 26.175781 3.953125 C 24.222656 2.511719 21.523438 1.617188 18.554688 1.617188 C 15.585938 1.617188 12.886719 2.507812 10.929688 3.953125 C 8.921875 5.433594 7.679688 7.492188 7.679688 9.773438 C 7.683594 10.804688 7.9375 11.824219 8.421875 12.734375 C 8.871094 13.585938 9.46875 14.351562 10.1875 14.988281 L 8.390625 18.722656 C 8.253906 18.988281 8.363281 19.316406 8.632812 19.449219 C 8.804688 19.535156 9.007812 19.527344 9.167969 19.421875 L 13.253906 16.898438 C 14.03125 17.222656 14.839844 17.472656 15.667969 17.640625 C 16.621094 17.835938 17.589844 17.929688 18.5625 17.929688 C 21.535156 17.929688 24.230469 17.039062 26.1875 15.59375 C 28.195312 14.113281 29.4375 12.054688 29.4375 9.773438 C 29.4375 7.492188 28.1875 5.429688 26.175781 3.953125 Z M 23.632812 8.628906 C 23.609375 8.722656 23.5625 8.808594 23.496094 8.882812 L 21.664062 10.992188 L 21.910156 13.804688 C 21.933594 14.105469 21.710938 14.371094 21.410156 14.394531 C 21.304688 14.402344 21.203125 14.382812 21.109375 14.332031 L 18.558594 13.25 L 15.960938 14.359375 C 15.683594 14.480469 15.363281 14.351562 15.246094 14.078125 C 15.210938 13.992188 15.195312 13.902344 15.203125 13.8125 L 15.449219 11 L 13.601562 8.871094 C 13.40625 8.640625 13.433594 8.296875 13.660156 8.101562 C 13.726562 8.042969 13.808594 8.003906 13.890625 7.984375 L 16.640625 7.339844 L 18.089844 4.925781 C 18.246094 4.667969 18.582031 4.582031 18.839844 4.738281 C 18.917969 4.785156 18.984375 4.847656 19.03125 4.925781 L 20.464844 7.335938 L 23.214844 7.980469 C 23.507812 8.042969 23.695312 8.332031 23.632812 8.628906 Z M 23.632812 8.628906 "/>
<path style=" stroke:none;fill-rule:nonzero;fill:rgb(0%,0%,0%);fill-opacity:1;" d="M 18.554688 18.960938 C 17.976562 18.960938 17.398438 18.929688 16.824219 18.867188 L 16.824219 23.347656 C 16.824219 24.316406 16.039062 25.101562 15.070312 25.105469 L 4.96875 25.105469 C 4 25.101562 3.214844 24.316406 3.210938 23.347656 L 3.210938 5.03125 C 3.214844 4.0625 4 3.277344 4.96875 3.273438 L 10.117188 3.273438 L 10.324219 3.113281 C 12.617188 1.429688 15.523438 0.617188 18.347656 0.578125 L 18.3125 0.554688 C 17.828125 0.195312 17.238281 0 16.632812 0 L 3.410156 0 C 2.671875 0 1.960938 0.289062 1.433594 0.804688 L 1.398438 0.832031 C 0.863281 1.367188 0.5625 2.089844 0.5625 2.84375 L 0.5625 27.152344 C 0.5625 27.90625 0.863281 28.632812 1.398438 29.164062 C 1.929688 29.699219 2.652344 30 3.40625 30 L 16.625 30 C 17.363281 30 18.074219 29.710938 18.601562 29.195312 L 18.632812 29.164062 C 19.167969 28.632812 19.472656 27.90625 19.472656 27.152344 L 19.472656 18.933594 C 19.164062 18.949219 18.859375 18.960938 18.554688 18.960938 Z M 10.015625 28.4375 C 9.484375 28.4375 9.050781 28.003906 9.050781 27.472656 C 9.050781 26.9375 9.484375 26.503906 10.015625 26.503906 C 10.550781 26.503906 10.984375 26.9375 10.984375 27.472656 C 10.984375 28.003906 10.550781 28.4375 10.015625 28.4375 Z M 10.015625 28.4375 "/>
</g>
</svg>
