<?xml version="1.0" encoding="UTF-8"?>
<svg xmlns="http://www.w3.org/2000/svg" xmlns:xlink="http://www.w3.org/1999/xlink" width="45pt" height="45pt" viewBox="0 0 45 45" version="1.1">
<g id="surface1">
<path style=" stroke:none;fill-rule:nonzero;fill:rgb(0%,0%,0%);fill-opacity:1;" d="M 41.695312 10.761719 L 43.878906 8.578125 C 44.242188 8.214844 44.359375 7.675781 44.183594 7.195312 C 44.007812 6.710938 43.570312 6.375 43.058594 6.332031 L 39.007812 5.992188 L 38.667969 1.941406 C 38.625 1.429688 38.289062 0.992188 37.804688 0.816406 C 37.324219 0.640625 36.785156 0.757812 36.421875 1.121094 L 34.238281 3.304688 C 30.710938 1.140625 26.675781 0 22.5 0 C 16.488281 0 10.839844 2.339844 6.589844 6.589844 C 2.339844 10.839844 0 16.488281 0 22.5 C 0 28.511719 2.339844 34.160156 6.589844 38.410156 C 10.839844 42.660156 16.488281 45 22.5 45 C 28.511719 45 34.160156 42.660156 38.410156 38.410156 C 42.660156 34.160156 45 28.511719 45 22.5 C 45 18.324219 43.859375 14.289062 41.695312 10.761719 Z M 36.476562 7.324219 C 36.527344 7.964844 37.035156 8.472656 37.675781 8.523438 L 40.007812 8.722656 L 36.855469 11.875 L 33.414062 11.585938 L 33.125 8.144531 L 36.277344 4.992188 Z M 26.984375 22.5 C 26.984375 24.972656 24.972656 26.984375 22.5 26.984375 C 20.027344 26.984375 18.015625 24.972656 18.015625 22.5 C 18.015625 20.027344 20.027344 18.015625 22.5 18.015625 C 23.257812 18.015625 23.96875 18.207031 24.597656 18.539062 L 21.566406 21.566406 C 21.054688 22.082031 21.054688 22.917969 21.566406 23.433594 C 21.824219 23.691406 22.164062 23.820312 22.5 23.820312 C 22.835938 23.820312 23.175781 23.691406 23.433594 23.433594 L 26.460938 20.402344 C 26.792969 21.03125 26.984375 21.742188 26.984375 22.5 Z M 26.511719 16.621094 C 25.371094 15.839844 23.988281 15.382812 22.5 15.382812 C 18.574219 15.382812 15.382812 18.574219 15.382812 22.5 C 15.382812 26.425781 18.574219 29.617188 22.5 29.617188 C 26.425781 29.617188 29.617188 26.425781 29.617188 22.5 C 29.617188 21.011719 29.160156 19.628906 28.378906 18.488281 L 32.140625 14.722656 C 33.859375 16.851562 34.890625 19.558594 34.890625 22.5 C 34.890625 29.332031 29.332031 34.890625 22.5 34.890625 C 15.667969 34.890625 10.109375 29.332031 10.109375 22.5 C 10.109375 15.667969 15.667969 10.109375 22.5 10.109375 C 25.441406 10.109375 28.148438 11.140625 30.277344 12.859375 Z M 36.546875 36.546875 C 32.792969 40.296875 27.804688 42.363281 22.5 42.363281 C 17.195312 42.363281 12.207031 40.296875 8.453125 36.546875 C 4.703125 32.792969 2.636719 27.804688 2.636719 22.5 C 2.636719 17.195312 4.703125 12.207031 8.453125 8.453125 C 12.207031 4.703125 17.195312 2.636719 22.5 2.636719 C 25.972656 2.636719 29.332031 3.527344 32.316406 5.226562 L 30.828125 6.714844 C 30.585938 6.953125 30.449219 7.277344 30.441406 7.613281 C 30.441406 7.660156 30.441406 7.707031 30.445312 7.757812 L 30.625 9.859375 C 28.28125 8.347656 25.492188 7.472656 22.5 7.472656 C 14.210938 7.472656 7.46875 14.210938 7.46875 22.5 C 7.46875 30.789062 14.210938 37.53125 22.5 37.53125 C 30.789062 37.53125 37.53125 30.789062 37.53125 22.5 C 37.53125 19.507812 36.652344 16.71875 35.140625 14.375 L 37.242188 14.554688 C 37.28125 14.554688 37.316406 14.558594 37.351562 14.558594 C 37.359375 14.558594 37.367188 14.558594 37.371094 14.558594 C 37.390625 14.558594 37.40625 14.554688 37.425781 14.554688 C 37.453125 14.554688 37.480469 14.550781 37.511719 14.546875 C 37.527344 14.546875 37.546875 14.542969 37.5625 14.539062 C 37.589844 14.535156 37.617188 14.53125 37.644531 14.523438 C 37.664062 14.519531 37.679688 14.515625 37.695312 14.511719 C 37.722656 14.503906 37.75 14.496094 37.777344 14.488281 C 37.792969 14.480469 37.8125 14.476562 37.828125 14.46875 C 37.851562 14.457031 37.878906 14.449219 37.902344 14.4375 C 37.921875 14.429688 37.9375 14.421875 37.953125 14.414062 C 37.976562 14.398438 38.003906 14.386719 38.027344 14.371094 C 38.042969 14.363281 38.054688 14.355469 38.070312 14.34375 C 38.097656 14.328125 38.121094 14.308594 38.148438 14.289062 C 38.160156 14.28125 38.171875 14.273438 38.183594 14.265625 C 38.21875 14.234375 38.253906 14.203125 38.285156 14.171875 L 39.773438 12.683594 C 41.472656 15.667969 42.363281 19.027344 42.363281 22.5 C 42.363281 27.804688 40.296875 32.792969 36.546875 36.546875 Z M 36.546875 36.546875 "/>
</g>
</svg>
