<?xml version="1.0" encoding="UTF-8"?>
<svg xmlns="http://www.w3.org/2000/svg" xmlns:xlink="http://www.w3.org/1999/xlink" width="50pt" height="50pt" viewBox="0 0 50 50" version="1.1">
<g id="surface1">
<path style=" stroke:none;fill-rule:nonzero;fill:rgb(0%,0%,0%);fill-opacity:1;" d="M 46.328125 11.957031 L 48.753906 9.53125 C 49.15625 9.128906 49.289062 8.527344 49.09375 7.992188 C 48.898438 7.457031 48.410156 7.085938 47.839844 7.035156 L 43.34375 6.65625 L 42.964844 2.160156 C 42.914062 1.589844 42.542969 1.101562 42.007812 0.90625 C 41.472656 0.710938 40.871094 0.84375 40.46875 1.246094 L 38.042969 3.671875 C 34.121094 1.265625 29.636719 0 25 0 C 18.324219 0 12.042969 2.601562 7.324219 7.324219 C 2.601562 12.042969 0 18.324219 0 25 C 0 31.675781 2.601562 37.957031 7.324219 42.675781 C 12.042969 47.398438 18.324219 50 25 50 C 31.675781 50 37.957031 47.398438 42.675781 42.675781 C 47.398438 37.957031 50 31.675781 50 25 C 50 20.363281 48.734375 15.878906 46.328125 11.957031 Z M 40.527344 8.136719 C 40.585938 8.847656 41.152344 9.414062 41.863281 9.472656 L 44.453125 9.691406 L 40.949219 13.195312 L 37.128906 12.871094 L 36.804688 9.050781 L 40.308594 5.546875 Z M 29.980469 25 C 29.980469 27.746094 27.746094 29.980469 25 29.980469 C 22.253906 29.980469 20.019531 27.746094 20.019531 25 C 20.019531 22.253906 22.253906 20.019531 25 20.019531 C 25.839844 20.019531 26.632812 20.230469 27.328125 20.597656 L 23.964844 23.964844 C 23.390625 24.535156 23.390625 25.464844 23.964844 26.035156 C 24.25 26.320312 24.625 26.464844 25 26.464844 C 25.375 26.464844 25.75 26.320312 26.035156 26.035156 L 29.402344 22.671875 C 29.769531 23.367188 29.980469 24.160156 29.980469 25 Z M 29.457031 18.46875 C 28.1875 17.601562 26.652344 17.089844 25 17.089844 C 20.636719 17.089844 17.089844 20.636719 17.089844 25 C 17.089844 29.363281 20.636719 32.910156 25 32.910156 C 29.363281 32.910156 32.910156 29.363281 32.910156 25 C 32.910156 23.347656 32.398438 21.8125 31.53125 20.542969 L 35.710938 16.359375 C 37.625 18.722656 38.769531 21.730469 38.769531 25 C 38.769531 32.59375 32.59375 38.769531 25 38.769531 C 17.40625 38.769531 11.230469 32.59375 11.230469 25 C 11.230469 17.40625 17.40625 11.230469 25 11.230469 C 28.269531 11.230469 31.277344 12.375 33.640625 14.289062 Z M 40.605469 40.605469 C 36.4375 44.773438 30.894531 47.070312 25 47.070312 C 19.105469 47.070312 13.5625 44.773438 9.394531 40.605469 C 5.226562 36.4375 2.929688 30.894531 2.929688 25 C 2.929688 19.105469 5.226562 13.5625 9.394531 9.394531 C 13.5625 5.226562 19.105469 2.929688 25 2.929688 C 28.855469 2.929688 32.59375 3.921875 35.90625 5.808594 L 34.253906 7.460938 C 33.984375 7.726562 33.835938 8.085938 33.824219 8.457031 C 33.824219 8.511719 33.824219 8.566406 33.828125 8.621094 L 34.027344 10.957031 C 31.421875 9.277344 28.324219 8.300781 25 8.300781 C 15.792969 8.300781 8.300781 15.792969 8.300781 25 C 8.300781 34.207031 15.792969 41.699219 25 41.699219 C 34.207031 41.699219 41.699219 34.207031 41.699219 25 C 41.699219 21.675781 40.722656 18.578125 39.042969 15.972656 L 41.378906 16.171875 C 41.421875 16.175781 41.464844 16.175781 41.503906 16.175781 C 41.511719 16.175781 41.519531 16.175781 41.523438 16.175781 C 41.542969 16.175781 41.5625 16.171875 41.582031 16.171875 C 41.613281 16.171875 41.648438 16.167969 41.679688 16.164062 C 41.699219 16.160156 41.714844 16.160156 41.734375 16.15625 C 41.765625 16.152344 41.796875 16.144531 41.828125 16.136719 C 41.847656 16.132812 41.867188 16.128906 41.886719 16.125 C 41.914062 16.117188 41.945312 16.105469 41.972656 16.097656 C 41.992188 16.089844 42.011719 16.082031 42.03125 16.078125 C 42.058594 16.066406 42.085938 16.054688 42.117188 16.039062 C 42.132812 16.03125 42.152344 16.023438 42.167969 16.015625 C 42.199219 16 42.226562 15.984375 42.253906 15.96875 C 42.269531 15.957031 42.285156 15.949219 42.300781 15.9375 C 42.332031 15.917969 42.359375 15.898438 42.386719 15.878906 C 42.398438 15.867188 42.414062 15.859375 42.425781 15.847656 C 42.464844 15.816406 42.503906 15.785156 42.539062 15.746094 L 44.191406 14.09375 C 46.078125 17.40625 47.070312 21.144531 47.070312 25 C 47.070312 30.894531 44.773438 36.4375 40.605469 40.605469 Z M 40.605469 40.605469 "/>
</g>
</svg>
