<?xml version="1.0" encoding="UTF-8"?>
<svg xmlns="http://www.w3.org/2000/svg" xmlns:xlink="http://www.w3.org/1999/xlink" width="45pt" height="45pt" viewBox="0 0 45 45" version="1.1">
<g id="surface1">
<path style=" stroke:none;fill-rule:nonzero;fill:rgb(0%,0%,0%);fill-opacity:1;" d="M 44.34375 17.84375 C 43.933594 17.609375 43.433594 17.605469 43.027344 17.839844 L 36.914062 21.347656 L 36.914062 39.472656 L 43.027344 42.980469 C 43.230469 43.097656 43.457031 43.152344 43.679688 43.152344 C 43.910156 43.152344 44.136719 43.09375 44.34375 42.976562 C 44.75 42.742188 45 42.304688 45 41.835938 L 45 18.984375 C 45 18.515625 44.75 18.078125 44.34375 17.84375 Z M 44.34375 17.84375 M 26.367188 26.015625 C 26.367188 26.742188 25.777344 27.335938 25.046875 27.335938 C 24.320312 27.335938 23.730469 26.742188 23.730469 26.015625 C 23.730469 25.289062 24.320312 24.695312 25.046875 24.695312 C 25.777344 24.695312 26.367188 25.289062 26.367188 26.015625 Z M 26.367188 26.015625 M 7.910156 24.695312 L 15.820312 24.695312 L 15.820312 27.335938 L 7.910156 27.335938 Z M 7.910156 24.695312 M 9.226562 6.242188 C 6.320312 6.242188 3.953125 8.605469 3.953125 11.515625 C 3.953125 14.421875 6.320312 16.789062 9.226562 16.789062 C 12.136719 16.789062 14.5 14.421875 14.5 11.515625 C 14.5 8.605469 12.136719 6.242188 9.226562 6.242188 Z M 9.226562 12.832031 C 8.5 12.832031 7.910156 12.242188 7.910156 11.515625 C 7.910156 10.785156 8.5 10.195312 9.226562 10.195312 C 9.957031 10.195312 10.546875 10.785156 10.546875 11.515625 C 10.546875 12.242188 9.957031 12.832031 9.226562 12.832031 Z M 9.226562 12.832031 M 22.414062 0.96875 C 18.050781 0.96875 14.5 4.515625 14.5 8.875 C 14.5 13.238281 18.050781 16.789062 22.414062 16.789062 C 26.773438 16.789062 30.320312 13.238281 30.320312 8.875 C 30.320312 4.515625 26.773438 0.96875 22.414062 0.96875 Z M 18.898438 10.195312 C 18.167969 10.195312 17.578125 9.605469 17.578125 8.875 C 17.578125 8.148438 18.167969 7.558594 18.898438 7.558594 C 19.625 7.558594 20.214844 8.148438 20.214844 8.875 C 20.214844 9.605469 19.625 10.195312 18.898438 10.195312 Z M 22.414062 13.710938 C 21.683594 13.710938 21.09375 13.121094 21.09375 12.390625 C 21.09375 11.664062 21.683594 11.074219 22.414062 11.074219 C 23.140625 11.074219 23.730469 11.664062 23.730469 12.390625 C 23.730469 13.121094 23.140625 13.710938 22.414062 13.710938 Z M 22.414062 6.679688 C 21.683594 6.679688 21.09375 6.089844 21.09375 5.359375 C 21.09375 4.632812 21.683594 4.042969 22.414062 4.042969 C 23.140625 4.042969 23.730469 4.632812 23.730469 5.359375 C 23.730469 6.089844 23.140625 6.679688 22.414062 6.679688 Z M 25.929688 10.195312 C 25.199219 10.195312 24.609375 9.605469 24.609375 8.875 C 24.609375 8.148438 25.199219 7.558594 25.929688 7.558594 C 26.65625 7.558594 27.246094 8.148438 27.246094 8.875 C 27.246094 9.605469 26.65625 10.195312 25.929688 10.195312 Z M 25.929688 10.195312 M 29.445312 16.789062 L 29.378906 16.789062 C 27.519531 18.425781 25.082031 19.421875 22.414062 19.421875 C 19.742188 19.421875 17.304688 18.425781 15.445312 16.789062 L 15.117188 16.789062 C 13.667969 18.40625 11.566406 19.421875 9.226562 19.421875 C 6.980469 19.421875 4.949219 18.480469 3.507812 16.972656 C 1.484375 17.550781 0 19.414062 0 21.621094 L 0 39.199219 C 0 41.863281 2.167969 44.03125 4.832031 44.03125 L 29.445312 44.03125 C 32.109375 44.03125 34.277344 41.863281 34.277344 39.199219 L 34.277344 21.621094 C 34.277344 18.957031 32.109375 16.789062 29.445312 16.789062 Z M 6.59375 29.96875 C 5.863281 29.96875 5.273438 29.378906 5.273438 28.652344 L 5.273438 23.378906 C 5.273438 22.652344 5.863281 22.0625 6.59375 22.0625 L 17.140625 22.0625 C 17.867188 22.0625 18.457031 22.652344 18.457031 23.378906 L 18.457031 28.652344 C 18.457031 29.378906 17.867188 29.96875 17.140625 29.96875 Z M 27.6875 38.757812 L 18.898438 38.757812 C 18.167969 38.757812 17.578125 38.167969 17.578125 37.441406 C 17.578125 36.714844 18.167969 36.125 18.898438 36.125 L 27.6875 36.125 C 28.414062 36.125 29.003906 36.714844 29.003906 37.441406 C 29.003906 38.167969 28.414062 38.757812 27.6875 38.757812 Z M 25.046875 29.96875 C 22.867188 29.96875 21.09375 28.195312 21.09375 26.015625 C 21.09375 23.835938 22.867188 22.0625 25.046875 22.0625 C 27.230469 22.0625 29.003906 23.835938 29.003906 26.015625 C 29.003906 28.195312 27.230469 29.96875 25.046875 29.96875 Z M 25.046875 29.96875 "/>
</g>
</svg>
